<svg width="1434" height="544" viewBox="0 0 1434 544" fill="none" xmlns="http://www.w3.org/2000/svg">
<g clip-path="url(#clip0_212_16580)" filter="url(#filter0_f_212_16580)">
<path opacity="0.15" d="M1368.19 237.88C1401.7 274.97 1428.88 339.451 1378.8 384.973C1373.63 389.666 1325.18 432.248 1252.3 426.96C1163.54 420.52 1145.34 350.812 1047.38 332.716C941.298 313.119 879.037 379.425 827.231 359.056C765.971 334.97 758.451 205.071 869.331 149.396C1002.91 82.3255 1278.08 138.151 1368.19 237.88Z" fill="#EBC136"/>
<path opacity="0.15" d="M533.245 429.639C564.307 410.569 598.155 372.148 577.134 333.285C574.966 329.278 554.262 292.654 505.679 283.834C446.505 273.09 417.162 316.52 349.092 311.996C275.375 307.096 251.688 252.301 212.971 257.114C167.189 262.806 129.627 348.21 187.514 404.149C257.248 471.538 449.723 480.917 533.245 429.639Z" fill="#EBC136"/>
<path opacity="0.15" d="M715.575 321.89C700.187 300.799 684.464 260.221 697.947 222.859C699.337 219.007 712.519 183.857 738.878 178.297C770.983 171.526 784.013 216.799 820.481 216.823C859.973 216.849 875.817 163.774 896.122 171.155C920.131 179.883 935.044 267.57 900.945 319.508C859.865 382.075 756.953 378.602 715.575 321.89Z" fill="#EBC136"/>
<path opacity="0.15" d="M703.467 274.802C720.284 264.124 738.622 242.633 727.276 220.936C726.107 218.699 714.931 198.254 688.654 193.363C656.649 187.407 640.745 211.693 603.923 209.218C564.047 206.538 551.27 175.943 530.321 178.661C505.55 181.876 485.171 229.62 516.448 260.828C554.128 298.423 658.247 303.514 703.467 274.802Z" fill="#EBC136"/>
<path opacity="0.15" d="M1427.62 248.365C1445.76 232.046 1465.7 199.494 1453.95 167.192C1452.74 163.861 1441.14 133.43 1413.17 126.595C1379.09 118.269 1361.7 154.965 1322.42 151.946C1279.89 148.678 1266.75 103.066 1244.34 107.534C1217.83 112.818 1195.28 184.751 1228.15 230.934C1267.76 286.569 1378.86 292.244 1427.62 248.365Z" fill="#8047F8"/>
<path opacity="0.15" d="M1439.61 377.852C1453.71 388.804 1469.15 410.725 1459.84 432.622C1458.88 434.88 1449.7 455.511 1427.82 460.261C1401.16 466.047 1387.73 441.312 1357.03 443.533C1323.79 445.938 1313.35 476.841 1295.86 473.922C1275.17 470.471 1257.84 421.932 1283.71 390.552C1314.88 352.749 1401.69 348.404 1439.61 377.852Z" fill="#8047F8"/>
<path opacity="0.15" d="M240.937 136.892C253.507 158.616 265.932 200.056 253.695 237.492C252.433 241.351 240.5 276.558 218.055 281.502C190.717 287.524 180.675 241.405 149.792 240.442C116.347 239.4 101.765 292.665 84.7319 284.678C64.5904 275.234 53.883 186.175 83.8998 134.53C120.06 72.3152 207.139 78.4763 240.937 136.892Z" fill="#EBC136"/>
<path opacity="0.15" d="M882.507 432.947C856.621 413.727 831.462 375.18 857.926 336.528C860.654 332.543 886.434 296.123 933.6 287.62C991.048 277.262 1011.11 320.78 1075.84 316.683C1145.94 312.246 1177.66 257.712 1213.2 262.753C1255.23 268.713 1275.76 354.166 1211.71 409.631C1134.55 476.449 952.112 484.627 882.507 432.947Z" fill="#EBC136"/>
<path opacity="0.15" d="M808.922 399.538C830.564 380.513 853.249 343.904 835.967 310.187C834.185 306.71 817.248 274.989 781.43 269.962C737.805 263.84 718.654 304.687 668.868 304.695C614.953 304.704 594.92 256.808 566.979 263.46C533.939 271.327 510.942 350.444 555.931 397.321C610.129 453.792 750.728 450.695 808.922 399.538Z" fill="#8047F8"/>
<path opacity="0.15" d="M856.472 141.004C897.019 151.666 940.079 171.465 909.336 188.257C906.167 189.989 875.993 205.762 810.11 207.009C729.863 208.528 693.181 186.67 601.369 184.784C501.943 182.742 466.601 206.767 414.852 202.269C353.66 196.95 308.602 155.145 390 132.591C488.058 105.42 747.443 112.335 856.472 141.004Z" fill="#8047F8"/>
<path opacity="0.15" d="M189.139 382.866C208.225 360.714 228.35 318.381 213.454 279.978C211.918 276.018 197.31 239.899 165.98 234.685C127.82 228.335 110.761 275.475 67.1632 276.25C19.9491 277.089 2.74424 222.467 -21.7709 230.526C-50.7595 240.056 -71.4579 331.145 -32.3915 384.214C14.6708 448.144 137.816 442.431 189.139 382.866Z" fill="#8047F8"/>
</g>
<defs>
<filter id="filter0_f_212_16580" x="-166" y="-160" width="1760" height="864" filterUnits="userSpaceOnUse" color-interpolation-filters="sRGB">
<feFlood flood-opacity="0" result="BackgroundImageFix"/>
<feBlend mode="normal" in="SourceGraphic" in2="BackgroundImageFix" result="shape"/>
<feGaussianBlur stdDeviation="80" result="effect1_foregroundBlur_212_16580"/>
</filter>
<clipPath id="clip0_212_16580">
<rect width="1440" height="544" fill="white" transform="translate(-6)"/>
</clipPath>
</defs>
</svg>
